# xmcd CD Database Entry
#
# Track frame offsets:
# 150
# 28212
# 44712
# 62187
# 81612
# 91962
# 109212
# 123612
# 139062
# 165162
# 170787
# 181512
# 190137
# 204387
# 214245
# 225612
# 257217
# 270762
#
# Disc length: 3899 seconds
#
# Revision: 1
# Processed by: cddbd v1.4PL0 Copyright (c) Steve Scherf et al.
# Submitted via: tcd 2.0b
#
DISCID=060f3912
DTITLE=Ton Koopman - Frescobaldi: Fiori musicali, Il secondo libro d
DTITLE=i toccate
DYEAR=1900
DGENRE=
TTITLE0=Il secondo libro di toccate, Aria detto Balletto
TTITLE1=Il secondo libro di toccate, Toccata quinta
TTITLE2=Il secondo libro di toccate, Canzona prima
TTITLE3=Il secondo libro di toccate, Canzona terza
TTITLE4=Il secondo libro di toccate, Canzona sesta
TTITLE5=Il secondo libro di toccate, Toccat seconda
TTITLE6=Il secondo libro di toccate, Canzona quarta
TTITLE7=Il secondo libro di toccate, Toccata settima
TTITLE8=Il secondo libro di toccate, Toccata quarta
TTITLE9=Fiori musicali, Messa della domenica, Toccata avanti la messa
TTITLE9=
TTITLE10=Fiori musicali, Messa della domenica, Kyrie I, II, III
TTITLE11=Fiori musicali, Messa della domenica, Christe I, II, III
TTITLE12=Fiori musicali, Messa della domenica, Kyrie I, II, III
TTITLE13=Fiori musicali, Messa della domenica, canzon dopo l'Epistola
TTITLE14=Fiori musicali, Messa della domenica, Ricercar dopo il Credo
TTITLE15=Il secondo libro di toccate, Toccata terza. alla Levatione
TTITLE16=Fiori musicali, Canzon post il Comune
TTITLE17=Fiori musicali, Bergamasca
EXTD=4509-96544-2 (erato]\nTon Koopman, organo\nEnregistrement réa
EXTD=lisé en 09/1993,\nL'Aqila, Basilica di san Beranrdino
EXTT0=
EXTT1=
EXTT2=
EXTT3=
EXTT4=
EXTT5=
EXTT6=
EXTT7=
EXTT8=
EXTT9=
EXTT10=
EXTT11=
EXTT12=
EXTT13=
EXTT14=
EXTT15=
EXTT16=
EXTT17=
PLAYORDER=
